<svg width="54" height="53" viewBox="0 0 54 53" fill="none" xmlns="http://www.w3.org/2000/svg">
<path d="M52.4908 51.2333H48.9029C48.9405 50.943 48.9575 50.6467 48.9575 50.35C48.9575 47.8567 47.5227 45.7344 45.4242 44.7517V15.0166C45.4242 14.4866 45.0709 14.1333 44.5409 14.1333H31.2909V0.883301C31.2909 0.3533 30.9376 2.27413e-08 30.4076 2.27413e-08H6.55754C6.02733 -0.000103493 5.67403 0.353196 5.67403 0.883197V51.2333H1.25732C0.727323 51.2333 0.374023 51.5866 0.374023 52.1166C0.374023 52.6466 0.727323 53 1.25732 53H6.55733H9.20734H30.4074H47.8091H52.4908C53.0208 53 53.3741 52.6467 53.3741 52.1167C53.3741 51.5867 53.0208 51.2333 52.4908 51.2333ZM43.6574 44.229C43.3691 44.1887 43.0745 44.1666 42.7741 44.1666C42.1073 44.1666 41.4531 44.2801 40.8351 44.4924C40.6812 44.2873 40.4331 44.1666 40.1241 44.1666C39.5941 44.1666 39.2408 44.5199 39.2408 45.0499V45.3206C38.906 45.5618 38.5948 45.8369 38.3123 46.1428C38.2677 46.19 38.2238 46.2378 38.1808 46.2865C37.4488 45.3715 36.506 44.7096 35.44 44.3874C35.2869 44.2469 35.0758 44.1665 34.8241 44.1665C34.7256 44.1665 34.6333 44.1788 34.5481 44.2021C34.3486 44.1788 34.1461 44.1665 33.9408 44.1665C33.3872 44.1665 32.7638 44.2383 32.2588 44.4434C32.1962 44.4645 32.1341 44.4862 32.0726 44.5095C31.4622 44.0133 30.7483 43.656 29.9959 43.4595C29.9879 43.4573 29.9798 43.4557 29.9719 43.4536C29.9063 43.4367 29.8404 43.4206 29.7743 43.4063C29.7207 43.3945 29.6664 43.3842 29.6123 43.3741C29.5888 43.3697 29.5653 43.3651 29.5417 43.361C29.4848 43.3512 29.4278 43.3425 29.3704 43.3345C29.3447 43.3309 29.319 43.3277 29.2932 43.3245C29.2405 43.318 29.1877 43.3118 29.1344 43.307C29.0956 43.3034 29.0567 43.3007 29.0178 43.2979C28.9762 43.295 28.9347 43.2916 28.8927 43.2896C28.8088 43.2856 28.7248 43.2831 28.6408 43.2831C28.5758 43.2831 28.5113 43.2844 28.4471 43.2868C28.4051 43.2882 28.3632 43.2908 28.3212 43.2932C28.3045 43.2943 28.2875 43.295 28.2707 43.2961C27.466 43.3495 26.6753 43.5766 25.9907 43.9789V15.8999H30.4074H43.6574V44.229ZM7.44074 1.7666H29.5241V14.1333H25.1074C24.5774 14.1333 24.2241 14.4866 24.2241 15.0166V42.4884C23.7726 42.0369 23.2523 41.6551 22.6857 41.3562C22.6357 41.3295 22.5852 41.3036 22.5345 41.2784C22.5145 41.2686 22.4947 41.2583 22.4747 41.2487C21.8442 40.9429 21.1582 40.7423 20.4414 40.6672C20.4314 40.6662 20.4212 40.6654 20.4111 40.6643C20.3278 40.656 20.2442 40.6495 20.1601 40.6447C20.1379 40.6433 20.1156 40.642 20.0933 40.6408C19.9983 40.6364 19.9031 40.6334 19.8074 40.6334C18.4927 40.6334 17.2747 41.0658 16.2741 41.7924V41.5168C16.2741 40.9868 15.9208 40.6335 15.3908 40.6335C14.8608 40.6335 14.5075 40.9868 14.5075 41.5168V43.2835C14.5075 43.416 14.5295 43.5374 14.5709 43.6451C14.1372 44.3598 13.8383 45.1656 13.7125 46.0219C12.6955 46.1381 11.7656 46.5041 10.9741 47.0512V46.8169C10.9741 46.2869 10.6208 45.9336 10.0908 45.9336C9.56085 45.9336 9.20755 46.2869 9.20755 46.8169V48.5836C9.20755 48.6867 9.22131 48.7829 9.24678 48.8713C8.8088 49.5796 8.51078 50.3812 8.38801 51.2335H7.44095V1.7666H7.44074ZM14.1054 47.7183C14.1229 47.7168 14.1406 47.7157 14.1582 47.7144C14.2048 47.7108 14.2514 47.7072 14.2984 47.7051C14.3676 47.702 14.4373 47.6999 14.5075 47.6999C15.0375 47.6999 15.3908 47.3466 15.3908 46.8166C15.3908 44.3433 17.3341 42.3999 19.8075 42.3999C22.0158 42.3999 23.8708 43.9899 24.1358 46.1982C24.1955 46.4371 24.3373 46.634 24.5313 46.7648C24.5435 46.7734 24.556 46.7815 24.5688 46.7895C24.5824 46.7978 24.596 46.8063 24.6102 46.814C24.6428 46.832 24.6767 46.8485 24.7121 46.8626C24.7135 46.8632 24.7147 46.8637 24.7161 46.8643C24.7566 46.8805 24.7988 46.894 24.8424 46.9049C24.8425 46.9049 24.8425 46.9049 24.8426 46.905C24.8952 46.9225 24.9549 46.9292 25.018 46.9272C25.3084 46.9315 25.5785 46.7727 25.7258 46.5519C25.7258 46.5518 25.7259 46.5518 25.726 46.5517L25.8143 46.4634C26.521 45.5801 27.4926 45.0501 28.641 45.0501C29.2374 45.0501 29.8336 45.2172 30.3687 45.5296C29.315 46.5203 28.7175 47.8119 28.648 49.1938C28.6434 49.2842 28.641 49.3753 28.641 49.4668C28.641 50.0811 28.7432 50.6698 28.9453 51.2335H10.179C10.5925 49.3316 12.167 47.8944 14.1054 47.7183ZM31.0306 51.2333C30.6932 50.6625 30.4958 49.9877 30.4958 49.3783C30.4958 48.4015 30.8809 47.5215 31.5427 46.8783C31.6692 46.761 31.8041 46.6527 31.9466 46.5547C32.0845 46.5557 32.2234 46.5269 32.3508 46.4633C34.2941 45.4033 36.5908 46.375 37.2975 48.3183C37.3858 48.5833 37.6508 48.8483 38.0925 48.8483C38.1763 48.8483 38.2691 48.8216 38.3623 48.7742C38.5839 48.7378 38.7591 48.5751 38.8875 48.3183C39.2298 47.5909 39.7598 47.0102 40.4049 46.603C40.5442 46.5642 40.6637 46.4955 40.7589 46.4022C41.3656 46.0973 42.0533 45.9333 42.7742 45.9333C45.2475 45.9333 47.1909 47.8766 47.1909 50.35C47.1909 50.615 47.1909 50.9683 47.1026 51.2333H31.0306Z" fill="url(#paint0_linear_1401_15)"/>
<path d="M29.5241 22.9668C28.9941 22.9668 28.6408 23.3201 28.6408 23.8501V25.6168C28.6408 26.1468 28.9941 26.5001 29.5241 26.5001C30.0541 26.5001 30.4074 26.1468 30.4074 25.6168V23.8501C30.4074 23.3201 30.0541 22.9668 29.5241 22.9668Z" fill="url(#paint1_linear_1401_15)"/>
<path d="M29.5241 38.8669C28.9941 38.8669 28.6408 39.2202 28.6408 39.7502V41.5169C28.6408 42.0469 28.9941 42.4002 29.5241 42.4002C30.0541 42.4002 30.4074 42.0469 30.4074 41.5169V39.7502C30.4074 39.2202 30.0541 38.8669 29.5241 38.8669Z" fill="url(#paint2_linear_1401_15)"/>
<path d="M29.5241 28.2668C28.9941 28.2668 28.6408 28.6201 28.6408 29.1501V30.9169C28.6408 31.4469 28.9941 31.8002 29.5241 31.8002C30.0541 31.8002 30.4074 31.4469 30.4074 30.9169V29.1501C30.4074 28.6201 30.0541 28.2668 29.5241 28.2668Z" fill="url(#paint3_linear_1401_15)"/>
<path d="M29.5241 33.5668C28.9941 33.5668 28.6408 33.9201 28.6408 34.4501V36.2168C28.6408 36.7468 28.9941 37.1001 29.5241 37.1001C30.0541 37.1001 30.4074 36.7468 30.4074 36.2168V34.4501C30.4074 33.9201 30.0541 33.5668 29.5241 33.5668Z" fill="url(#paint4_linear_1401_15)"/>
<path d="M29.5241 17.6667C28.9941 17.6667 28.6408 18.02 28.6408 18.55V20.3168C28.6408 20.8468 28.9941 21.2001 29.5241 21.2001C30.0541 21.2001 30.4074 20.8468 30.4074 20.3168V18.55C30.4074 18.02 30.0541 17.6667 29.5241 17.6667Z" fill="url(#paint5_linear_1401_15)"/>
<path d="M34.8241 26.5001C35.3541 26.5001 35.7074 26.1468 35.7074 25.6168V23.8501C35.7074 23.3201 35.3541 22.9668 34.8241 22.9668C34.2941 22.9668 33.9408 23.3201 33.9408 23.8501V25.6168C33.9408 26.1468 34.2941 26.5001 34.8241 26.5001Z" fill="url(#paint6_linear_1401_15)"/>
<path d="M34.8241 21.2001C35.3541 21.2001 35.7074 20.8468 35.7074 20.3168V18.55C35.7074 18.02 35.3541 17.6667 34.8241 17.6667C34.2941 17.6667 33.9408 18.02 33.9408 18.55V20.3168C33.9408 20.8468 34.2941 21.2001 34.8241 21.2001Z" fill="url(#paint7_linear_1401_15)"/>
<path d="M34.8241 31.8002C35.3541 31.8002 35.7074 31.4469 35.7074 30.9169V29.1501C35.7074 28.6201 35.3541 28.2668 34.8241 28.2668C34.2941 28.2668 33.9408 28.6201 33.9408 29.1501V30.9169C33.9408 31.4469 34.2941 31.8002 34.8241 31.8002Z" fill="url(#paint8_linear_1401_15)"/>
<path d="M34.8241 37.1001C35.3541 37.1001 35.7074 36.7468 35.7074 36.2168V34.4501C35.7074 33.9201 35.3541 33.5668 34.8241 33.5668C34.2941 33.5668 33.9408 33.9201 33.9408 34.4501V36.2168C33.9408 36.7468 34.2941 37.1001 34.8241 37.1001Z" fill="url(#paint9_linear_1401_15)"/>
<path d="M34.8241 42.4002C35.3541 42.4002 35.7074 42.0469 35.7074 41.5169V39.7502C35.7074 39.2202 35.3541 38.8669 34.8241 38.8669C34.2941 38.8669 33.9408 39.2202 33.9408 39.7502V41.5169C33.9408 42.0469 34.2941 42.4002 34.8241 42.4002Z" fill="url(#paint10_linear_1401_15)"/>
<path d="M40.1241 31.8002C40.6541 31.8002 41.0074 31.4469 41.0074 30.9169V29.1501C41.0074 28.6201 40.6541 28.2668 40.1241 28.2668C39.5941 28.2668 39.2408 28.6201 39.2408 29.1501V30.9169C39.2408 31.4469 39.5941 31.8002 40.1241 31.8002Z" fill="url(#paint11_linear_1401_15)"/>
<path d="M40.1241 26.5001C40.6541 26.5001 41.0074 26.1468 41.0074 25.6168V23.8501C41.0074 23.3201 40.6541 22.9668 40.1241 22.9668C39.5941 22.9668 39.2408 23.3201 39.2408 23.8501V25.6168C39.2408 26.1468 39.5941 26.5001 40.1241 26.5001Z" fill="url(#paint12_linear_1401_15)"/>
<path d="M40.1241 42.4002C40.6541 42.4002 41.0074 42.0469 41.0074 41.5169V39.7502C41.0074 39.2202 40.6541 38.8669 40.1241 38.8669C39.5941 38.8669 39.2408 39.2202 39.2408 39.7502V41.5169C39.2408 42.0469 39.5941 42.4002 40.1241 42.4002Z" fill="url(#paint13_linear_1401_15)"/>
<path d="M40.1241 37.1001C40.6541 37.1001 41.0074 36.7468 41.0074 36.2168V34.4501C41.0074 33.9201 40.6541 33.5668 40.1241 33.5668C39.5941 33.5668 39.2408 33.9201 39.2408 34.4501V36.2168C39.2408 36.7468 39.5941 37.1001 40.1241 37.1001Z" fill="url(#paint14_linear_1401_15)"/>
<path d="M40.1241 21.2001C40.6541 21.2001 41.0074 20.8468 41.0074 20.3168V18.55C41.0074 18.02 40.6541 17.6667 40.1241 17.6667C39.5941 17.6667 39.2408 18.02 39.2408 18.55V20.3168C39.2408 20.8468 39.5941 21.2001 40.1241 21.2001Z" fill="url(#paint15_linear_1401_15)"/>
<path d="M10.0908 33.5668C10.6208 33.5668 10.9741 33.2135 10.9741 32.6835V30.9168C10.9741 30.3868 10.6208 30.0335 10.0908 30.0335C9.56076 30.0335 9.20746 30.3868 9.20746 30.9168V32.6835C9.20736 33.2134 9.56076 33.5668 10.0908 33.5668Z" fill="url(#paint16_linear_1401_15)"/>
<path d="M10.0908 38.8669C10.6208 38.8669 10.9741 38.5136 10.9741 37.9836V36.2169C10.9741 35.6869 10.6208 35.3336 10.0908 35.3336C9.56076 35.3336 9.20746 35.6869 9.20746 36.2169V37.9836C9.20736 38.5135 9.56076 38.8669 10.0908 38.8669Z" fill="url(#paint17_linear_1401_15)"/>
<path d="M10.0908 44.1669C10.6208 44.1669 10.9741 43.8136 10.9741 43.2836V41.5169C10.9741 40.9869 10.6208 40.6336 10.0908 40.6336C9.56076 40.6336 9.20746 40.9869 9.20746 41.5169V43.2836C9.20736 43.8135 9.56076 44.1669 10.0908 44.1669Z" fill="url(#paint18_linear_1401_15)"/>
<path d="M10.0908 7.06675C10.6208 7.06675 10.9741 6.71345 10.9741 6.18345V4.41675C10.9741 3.88675 10.6208 3.53345 10.0908 3.53345C9.56076 3.53345 9.20746 3.88675 9.20746 4.41675V6.18345C9.20736 6.71335 9.56076 7.06675 10.0908 7.06675Z" fill="url(#paint19_linear_1401_15)"/>
<path d="M10.0908 12.3668C10.6208 12.3668 10.9741 12.0135 10.9741 11.4835V9.7168C10.9741 9.1868 10.6208 8.8335 10.0908 8.8335C9.56076 8.8335 9.20746 9.1868 9.20746 9.7168V11.4835C9.20736 12.0134 9.56076 12.3668 10.0908 12.3668Z" fill="url(#paint20_linear_1401_15)"/>
<path d="M10.0908 17.6668C10.6208 17.6668 10.9741 17.3135 10.9741 16.7835V15.0168C10.9741 14.4868 10.6208 14.1335 10.0908 14.1335C9.56076 14.1335 9.20746 14.4868 9.20746 15.0168V16.7835C9.20736 17.3134 9.56076 17.6668 10.0908 17.6668Z" fill="url(#paint21_linear_1401_15)"/>
<path d="M10.0908 22.9668C10.6208 22.9668 10.9741 22.6135 10.9741 22.0835V20.3168C10.9741 19.7868 10.6208 19.4335 10.0908 19.4335C9.56076 19.4335 9.20746 19.7868 9.20746 20.3168V22.0835C9.20736 22.6134 9.56076 22.9668 10.0908 22.9668Z" fill="url(#paint22_linear_1401_15)"/>
<path d="M10.0908 28.2669C10.6208 28.2669 10.9741 27.9136 10.9741 27.3836V25.6169C10.9741 25.0869 10.6208 24.7336 10.0908 24.7336C9.56076 24.7336 9.20746 25.0869 9.20746 25.6169V27.3836C9.20736 27.9135 9.56076 28.2669 10.0908 28.2669Z" fill="url(#paint23_linear_1401_15)"/>
<path d="M15.3907 12.3668C15.9207 12.3668 16.274 12.0135 16.274 11.4835V9.7168C16.274 9.1868 15.9207 8.8335 15.3907 8.8335C14.8607 8.8335 14.5074 9.1868 14.5074 9.7168V11.4835C14.5073 12.0134 14.8607 12.3668 15.3907 12.3668Z" fill="url(#paint24_linear_1401_15)"/>
<path d="M15.3907 7.06675C15.9207 7.06675 16.274 6.71345 16.274 6.18345V4.41675C16.274 3.88675 15.9207 3.53345 15.3907 3.53345C14.8607 3.53345 14.5074 3.88675 14.5074 4.41675V6.18345C14.5073 6.71335 14.8607 7.06675 15.3907 7.06675Z" fill="url(#paint25_linear_1401_15)"/>
<path d="M15.3907 22.9668C15.9207 22.9668 16.274 22.6135 16.274 22.0835V20.3168C16.274 19.7868 15.9207 19.4335 15.3907 19.4335C14.8607 19.4335 14.5074 19.7868 14.5074 20.3168V22.0835C14.5073 22.6134 14.8607 22.9668 15.3907 22.9668Z" fill="url(#paint26_linear_1401_15)"/>
<path d="M15.3907 17.6668C15.9207 17.6668 16.274 17.3135 16.274 16.7835V15.0168C16.274 14.4868 15.9207 14.1335 15.3907 14.1335C14.8607 14.1335 14.5074 14.4868 14.5074 15.0168V16.7835C14.5073 17.3134 14.8607 17.6668 15.3907 17.6668Z" fill="url(#paint27_linear_1401_15)"/>
<path d="M15.3907 28.2669C15.9207 28.2669 16.274 27.9136 16.274 27.3836V25.6169C16.274 25.0869 15.9207 24.7336 15.3907 24.7336C14.8607 24.7336 14.5074 25.0869 14.5074 25.6169V27.3836C14.5073 27.9135 14.8607 28.2669 15.3907 28.2669Z" fill="url(#paint28_linear_1401_15)"/>
<path d="M15.3907 33.5668C15.9207 33.5668 16.274 33.2135 16.274 32.6835V30.9168C16.274 30.3868 15.9207 30.0335 15.3907 30.0335C14.8607 30.0335 14.5074 30.3868 14.5074 30.9168V32.6835C14.5073 33.2134 14.8607 33.5668 15.3907 33.5668Z" fill="url(#paint29_linear_1401_15)"/>
<path d="M15.3907 38.8669C15.9207 38.8669 16.274 38.5136 16.274 37.9836V36.2169C16.274 35.6869 15.9207 35.3336 15.3907 35.3336C14.8607 35.3336 14.5074 35.6869 14.5074 36.2169V37.9836C14.5073 38.5135 14.8607 38.8669 15.3907 38.8669Z" fill="url(#paint30_linear_1401_15)"/>
<path d="M20.6908 17.6668C21.2208 17.6668 21.5741 17.3135 21.5741 16.7835V15.0168C21.5741 14.4868 21.2208 14.1335 20.6908 14.1335C20.1608 14.1335 19.8075 14.4868 19.8075 15.0168V16.7835C19.8074 17.3134 20.1608 17.6668 20.6908 17.6668Z" fill="url(#paint31_linear_1401_15)"/>
<path d="M20.6908 12.3668C21.2208 12.3668 21.5741 12.0135 21.5741 11.4835V9.7168C21.5741 9.1868 21.2208 8.8335 20.6908 8.8335C20.1608 8.8335 19.8075 9.1868 19.8075 9.7168V11.4835C19.8074 12.0134 20.1608 12.3668 20.6908 12.3668Z" fill="url(#paint32_linear_1401_15)"/>
<path d="M20.6908 7.06675C21.2208 7.06675 21.5741 6.71345 21.5741 6.18345V4.41675C21.5741 3.88675 21.2208 3.53345 20.6908 3.53345C20.1608 3.53345 19.8075 3.88675 19.8075 4.41675V6.18345C19.8074 6.71335 20.1608 7.06675 20.6908 7.06675Z" fill="url(#paint33_linear_1401_15)"/>
<path d="M20.6908 38.8669C21.2208 38.8669 21.5741 38.5136 21.5741 37.9836V36.2169C21.5741 35.6869 21.2208 35.3336 20.6908 35.3336C20.1608 35.3336 19.8075 35.6869 19.8075 36.2169V37.9836C19.8074 38.5135 20.1608 38.8669 20.6908 38.8669Z" fill="url(#paint34_linear_1401_15)"/>
<path d="M20.6908 33.5668C21.2208 33.5668 21.5741 33.2135 21.5741 32.6835V30.9168C21.5741 30.3868 21.2208 30.0335 20.6908 30.0335C20.1608 30.0335 19.8075 30.3868 19.8075 30.9168V32.6835C19.8074 33.2134 20.1608 33.5668 20.6908 33.5668Z" fill="url(#paint35_linear_1401_15)"/>
<path d="M20.6908 28.2669C21.2208 28.2669 21.5741 27.9136 21.5741 27.3836V25.6169C21.5741 25.0869 21.2208 24.7336 20.6908 24.7336C20.1608 24.7336 19.8075 25.0869 19.8075 25.6169V27.3836C19.8074 27.9135 20.1608 28.2669 20.6908 28.2669Z" fill="url(#paint36_linear_1401_15)"/>
<path d="M20.6908 22.9668C21.2208 22.9668 21.5741 22.6135 21.5741 22.0835V20.3168C21.5741 19.7868 21.2208 19.4335 20.6908 19.4335C20.1608 19.4335 19.8075 19.7868 19.8075 20.3168V22.0835C19.8074 22.6134 20.1608 22.9668 20.6908 22.9668Z" fill="url(#paint37_linear_1401_15)"/>
<path d="M25.9908 12.3668C26.5208 12.3668 26.8741 12.0135 26.8741 11.4835V9.7168C26.8741 9.1868 26.5208 8.8335 25.9908 8.8335C25.4608 8.8335 25.1075 9.1868 25.1075 9.7168V11.4835C25.1074 12.0134 25.4608 12.3668 25.9908 12.3668Z" fill="url(#paint38_linear_1401_15)"/>
<path d="M25.9908 7.06675C26.5208 7.06675 26.8741 6.71345 26.8741 6.18345V4.41675C26.8741 3.88675 26.5208 3.53345 25.9908 3.53345C25.4608 3.53345 25.1075 3.88675 25.1075 4.41675V6.18345C25.1074 6.71335 25.4608 7.06675 25.9908 7.06675Z" fill="url(#paint39_linear_1401_15)"/>
<defs>
<linearGradient id="paint0_linear_1401_15" x1="26.8741" y1="0" x2="26.8741" y2="53" gradientUnits="userSpaceOnUse">
<stop stop-color="#175EC7"/>
<stop offset="1" stop-color="#0BC4FF"/>
</linearGradient>
<linearGradient id="paint1_linear_1401_15" x1="29.5241" y1="22.9668" x2="29.5241" y2="26.5001" gradientUnits="userSpaceOnUse">
<stop stop-color="#175EC7"/>
<stop offset="1" stop-color="#0BC4FF"/>
</linearGradient>
<linearGradient id="paint2_linear_1401_15" x1="29.5241" y1="38.8669" x2="29.5241" y2="42.4002" gradientUnits="userSpaceOnUse">
<stop stop-color="#175EC7"/>
<stop offset="1" stop-color="#0BC4FF"/>
</linearGradient>
<linearGradient id="paint3_linear_1401_15" x1="29.5241" y1="28.2668" x2="29.5241" y2="31.8002" gradientUnits="userSpaceOnUse">
<stop stop-color="#175EC7"/>
<stop offset="1" stop-color="#0BC4FF"/>
</linearGradient>
<linearGradient id="paint4_linear_1401_15" x1="29.5241" y1="33.5668" x2="29.5241" y2="37.1001" gradientUnits="userSpaceOnUse">
<stop stop-color="#175EC7"/>
<stop offset="1" stop-color="#0BC4FF"/>
</linearGradient>
<linearGradient id="paint5_linear_1401_15" x1="29.5241" y1="17.6667" x2="29.5241" y2="21.2001" gradientUnits="userSpaceOnUse">
<stop stop-color="#175EC7"/>
<stop offset="1" stop-color="#0BC4FF"/>
</linearGradient>
<linearGradient id="paint6_linear_1401_15" x1="34.8241" y1="22.9668" x2="34.8241" y2="26.5001" gradientUnits="userSpaceOnUse">
<stop stop-color="#175EC7"/>
<stop offset="1" stop-color="#0BC4FF"/>
</linearGradient>
<linearGradient id="paint7_linear_1401_15" x1="34.8241" y1="17.6667" x2="34.8241" y2="21.2001" gradientUnits="userSpaceOnUse">
<stop stop-color="#175EC7"/>
<stop offset="1" stop-color="#0BC4FF"/>
</linearGradient>
<linearGradient id="paint8_linear_1401_15" x1="34.8241" y1="28.2668" x2="34.8241" y2="31.8002" gradientUnits="userSpaceOnUse">
<stop stop-color="#175EC7"/>
<stop offset="1" stop-color="#0BC4FF"/>
</linearGradient>
<linearGradient id="paint9_linear_1401_15" x1="34.8241" y1="33.5668" x2="34.8241" y2="37.1001" gradientUnits="userSpaceOnUse">
<stop stop-color="#175EC7"/>
<stop offset="1" stop-color="#0BC4FF"/>
</linearGradient>
<linearGradient id="paint10_linear_1401_15" x1="34.8241" y1="38.8669" x2="34.8241" y2="42.4002" gradientUnits="userSpaceOnUse">
<stop stop-color="#175EC7"/>
<stop offset="1" stop-color="#0BC4FF"/>
</linearGradient>
<linearGradient id="paint11_linear_1401_15" x1="40.1241" y1="28.2668" x2="40.1241" y2="31.8002" gradientUnits="userSpaceOnUse">
<stop stop-color="#175EC7"/>
<stop offset="1" stop-color="#0BC4FF"/>
</linearGradient>
<linearGradient id="paint12_linear_1401_15" x1="40.1241" y1="22.9668" x2="40.1241" y2="26.5001" gradientUnits="userSpaceOnUse">
<stop stop-color="#175EC7"/>
<stop offset="1" stop-color="#0BC4FF"/>
</linearGradient>
<linearGradient id="paint13_linear_1401_15" x1="40.1241" y1="38.8669" x2="40.1241" y2="42.4002" gradientUnits="userSpaceOnUse">
<stop stop-color="#175EC7"/>
<stop offset="1" stop-color="#0BC4FF"/>
</linearGradient>
<linearGradient id="paint14_linear_1401_15" x1="40.1241" y1="33.5668" x2="40.1241" y2="37.1001" gradientUnits="userSpaceOnUse">
<stop stop-color="#175EC7"/>
<stop offset="1" stop-color="#0BC4FF"/>
</linearGradient>
<linearGradient id="paint15_linear_1401_15" x1="40.1241" y1="17.6667" x2="40.1241" y2="21.2001" gradientUnits="userSpaceOnUse">
<stop stop-color="#175EC7"/>
<stop offset="1" stop-color="#0BC4FF"/>
</linearGradient>
<linearGradient id="paint16_linear_1401_15" x1="10.0908" y1="30.0335" x2="10.0908" y2="33.5668" gradientUnits="userSpaceOnUse">
<stop stop-color="#175EC7"/>
<stop offset="1" stop-color="#0BC4FF"/>
</linearGradient>
<linearGradient id="paint17_linear_1401_15" x1="10.0908" y1="35.3336" x2="10.0908" y2="38.8669" gradientUnits="userSpaceOnUse">
<stop stop-color="#175EC7"/>
<stop offset="1" stop-color="#0BC4FF"/>
</linearGradient>
<linearGradient id="paint18_linear_1401_15" x1="10.0908" y1="40.6336" x2="10.0908" y2="44.1669" gradientUnits="userSpaceOnUse">
<stop stop-color="#175EC7"/>
<stop offset="1" stop-color="#0BC4FF"/>
</linearGradient>
<linearGradient id="paint19_linear_1401_15" x1="10.0908" y1="3.53345" x2="10.0908" y2="7.06675" gradientUnits="userSpaceOnUse">
<stop stop-color="#175EC7"/>
<stop offset="1" stop-color="#0BC4FF"/>
</linearGradient>
<linearGradient id="paint20_linear_1401_15" x1="10.0908" y1="8.8335" x2="10.0908" y2="12.3668" gradientUnits="userSpaceOnUse">
<stop stop-color="#175EC7"/>
<stop offset="1" stop-color="#0BC4FF"/>
</linearGradient>
<linearGradient id="paint21_linear_1401_15" x1="10.0908" y1="14.1335" x2="10.0908" y2="17.6668" gradientUnits="userSpaceOnUse">
<stop stop-color="#175EC7"/>
<stop offset="1" stop-color="#0BC4FF"/>
</linearGradient>
<linearGradient id="paint22_linear_1401_15" x1="10.0908" y1="19.4335" x2="10.0908" y2="22.9668" gradientUnits="userSpaceOnUse">
<stop stop-color="#175EC7"/>
<stop offset="1" stop-color="#0BC4FF"/>
</linearGradient>
<linearGradient id="paint23_linear_1401_15" x1="10.0908" y1="24.7336" x2="10.0908" y2="28.2669" gradientUnits="userSpaceOnUse">
<stop stop-color="#175EC7"/>
<stop offset="1" stop-color="#0BC4FF"/>
</linearGradient>
<linearGradient id="paint24_linear_1401_15" x1="15.3907" y1="8.8335" x2="15.3907" y2="12.3668" gradientUnits="userSpaceOnUse">
<stop stop-color="#175EC7"/>
<stop offset="1" stop-color="#0BC4FF"/>
</linearGradient>
<linearGradient id="paint25_linear_1401_15" x1="15.3907" y1="3.53345" x2="15.3907" y2="7.06675" gradientUnits="userSpaceOnUse">
<stop stop-color="#175EC7"/>
<stop offset="1" stop-color="#0BC4FF"/>
</linearGradient>
<linearGradient id="paint26_linear_1401_15" x1="15.3907" y1="19.4335" x2="15.3907" y2="22.9668" gradientUnits="userSpaceOnUse">
<stop stop-color="#175EC7"/>
<stop offset="1" stop-color="#0BC4FF"/>
</linearGradient>
<linearGradient id="paint27_linear_1401_15" x1="15.3907" y1="14.1335" x2="15.3907" y2="17.6668" gradientUnits="userSpaceOnUse">
<stop stop-color="#175EC7"/>
<stop offset="1" stop-color="#0BC4FF"/>
</linearGradient>
<linearGradient id="paint28_linear_1401_15" x1="15.3907" y1="24.7336" x2="15.3907" y2="28.2669" gradientUnits="userSpaceOnUse">
<stop stop-color="#175EC7"/>
<stop offset="1" stop-color="#0BC4FF"/>
</linearGradient>
<linearGradient id="paint29_linear_1401_15" x1="15.3907" y1="30.0335" x2="15.3907" y2="33.5668" gradientUnits="userSpaceOnUse">
<stop stop-color="#175EC7"/>
<stop offset="1" stop-color="#0BC4FF"/>
</linearGradient>
<linearGradient id="paint30_linear_1401_15" x1="15.3907" y1="35.3336" x2="15.3907" y2="38.8669" gradientUnits="userSpaceOnUse">
<stop stop-color="#175EC7"/>
<stop offset="1" stop-color="#0BC4FF"/>
</linearGradient>
<linearGradient id="paint31_linear_1401_15" x1="20.6908" y1="14.1335" x2="20.6908" y2="17.6668" gradientUnits="userSpaceOnUse">
<stop stop-color="#175EC7"/>
<stop offset="1" stop-color="#0BC4FF"/>
</linearGradient>
<linearGradient id="paint32_linear_1401_15" x1="20.6908" y1="8.8335" x2="20.6908" y2="12.3668" gradientUnits="userSpaceOnUse">
<stop stop-color="#175EC7"/>
<stop offset="1" stop-color="#0BC4FF"/>
</linearGradient>
<linearGradient id="paint33_linear_1401_15" x1="20.6908" y1="3.53345" x2="20.6908" y2="7.06675" gradientUnits="userSpaceOnUse">
<stop stop-color="#175EC7"/>
<stop offset="1" stop-color="#0BC4FF"/>
</linearGradient>
<linearGradient id="paint34_linear_1401_15" x1="20.6908" y1="35.3336" x2="20.6908" y2="38.8669" gradientUnits="userSpaceOnUse">
<stop stop-color="#175EC7"/>
<stop offset="1" stop-color="#0BC4FF"/>
</linearGradient>
<linearGradient id="paint35_linear_1401_15" x1="20.6908" y1="30.0335" x2="20.6908" y2="33.5668" gradientUnits="userSpaceOnUse">
<stop stop-color="#175EC7"/>
<stop offset="1" stop-color="#0BC4FF"/>
</linearGradient>
<linearGradient id="paint36_linear_1401_15" x1="20.6908" y1="24.7336" x2="20.6908" y2="28.2669" gradientUnits="userSpaceOnUse">
<stop stop-color="#175EC7"/>
<stop offset="1" stop-color="#0BC4FF"/>
</linearGradient>
<linearGradient id="paint37_linear_1401_15" x1="20.6908" y1="19.4335" x2="20.6908" y2="22.9668" gradientUnits="userSpaceOnUse">
<stop stop-color="#175EC7"/>
<stop offset="1" stop-color="#0BC4FF"/>
</linearGradient>
<linearGradient id="paint38_linear_1401_15" x1="25.9908" y1="8.8335" x2="25.9908" y2="12.3668" gradientUnits="userSpaceOnUse">
<stop stop-color="#175EC7"/>
<stop offset="1" stop-color="#0BC4FF"/>
</linearGradient>
<linearGradient id="paint39_linear_1401_15" x1="25.9908" y1="3.53345" x2="25.9908" y2="7.06675" gradientUnits="userSpaceOnUse">
<stop stop-color="#175EC7"/>
<stop offset="1" stop-color="#0BC4FF"/>
</linearGradient>
</defs>
</svg>
