<svg width="54" height="53" viewBox="0 0 54 53" fill="none" xmlns="http://www.w3.org/2000/svg">
<path d="M51.9543 14.7532C51.9383 14.7418 51.9221 14.7306 51.906 14.7196L45.6925 10.4128H45.8745V3.78838C45.8745 3.26577 45.467 2.84204 44.9644 2.84204H40.4144C39.9119 2.84204 39.5044 3.26577 39.5044 3.78838V6.12112L30.9094 0.159163C30.6036 -0.0530543 30.205 -0.0530543 29.8993 0.159163L8.90262 14.7196C7.60586 15.5986 7.23981 17.4045 8.0851 18.753C8.93038 20.1015 10.6669 20.4822 11.9637 19.6032C11.9799 19.5922 11.9961 19.5809 12.012 19.5696L14.9342 17.5435V35.964H13.1141C13.1141 35.4414 12.7067 35.0177 12.2041 35.0177H4.92407C4.42151 35.0177 4.01406 35.4414 4.01406 35.964H0.374023V37.8567H4.01406V47.3201H0.374023V49.2128H4.01406C4.01406 49.7354 4.42151 50.1591 4.92407 50.1591H12.2041C12.7067 50.1591 13.1141 49.7354 13.1141 49.2128V48.8522L19.9083 51.7859C23.6123 53.3576 27.7527 53.405 31.489 51.9184L45.5469 46.3454C46.3794 46.0162 47.0493 45.3519 47.4051 44.5028C47.774 43.6417 47.7933 42.6621 47.4588 41.7859C47.1612 41.0027 46.5975 40.3605 45.8745 39.9812V17.5435L48.7965 19.5696C50.0755 20.4764 51.8192 20.1334 52.6912 18.8034C53.5632 17.4733 53.2334 15.66 51.9543 14.7532ZM11.2941 48.2664H5.83408V36.9103H11.2941V48.2664ZM41.3244 4.73472H44.0544V9.27717L41.3244 7.38448V4.73472ZM45.7407 43.7382C45.5794 44.1239 45.2758 44.4261 44.898 44.5767L30.8402 50.1506C27.5369 51.4661 23.8759 51.4249 20.6008 50.0352L13.1141 46.8015V37.8567H15.421C18.4385 37.8603 21.4141 38.591 24.1143 39.9916C25.0064 40.4534 25.9889 40.6944 26.9854 40.6957H34.0443C34.7982 40.7003 35.4058 41.3395 35.4014 42.1235C35.3978 42.7805 34.961 43.3491 34.3456 43.4978C34.2263 43.5092 34.109 43.5347 33.9879 43.5347H23.1242V45.4274H33.9879C34.007 45.4274 34.0252 45.4274 34.0443 45.4274C34.0625 45.4274 34.0798 45.4217 34.0989 45.4217C34.821 45.4093 35.5341 45.2526 36.1992 44.9599L43.8078 41.6004C44.1702 41.4395 44.5802 41.4395 44.9426 41.6004C45.3192 41.7668 45.6149 42.0851 45.7616 42.4824C45.9165 42.8871 45.909 43.3394 45.7407 43.7382ZM34.0443 38.803H26.9854C26.2714 38.8017 25.5673 38.6291 24.9279 38.2986C22.3772 36.9769 19.5982 36.1993 16.7542 36.0113V16.2801L30.4043 6.81668L44.0544 16.2801V39.6188C43.7254 39.6478 43.4023 39.7282 43.0962 39.8573L37.1957 42.4635C37.2129 42.3481 37.2241 42.2319 37.2294 42.1152C37.2294 40.2859 35.8034 38.803 34.0443 38.803ZM50.8158 18.045V18.0422C50.4965 18.2227 50.107 18.2033 49.8057 17.992L30.9094 4.89371C30.6036 4.68149 30.205 4.68149 29.8993 4.89371L11.0029 17.9949C10.5507 18.308 9.94003 18.1805 9.63894 17.7101C9.53144 17.5422 9.47411 17.345 9.47411 17.1432C9.47354 16.8009 9.63791 16.4811 9.91182 16.2914L30.4043 2.08497L50.8968 16.2943C51.1707 16.484 51.3351 16.8038 51.3345 17.146C51.3374 17.5231 51.137 17.8702 50.8158 18.045Z" fill="url(#paint0_linear_148_178)"/>
<path d="M9.47413 44.4811H7.65411V46.3738H9.47413V44.4811Z" fill="url(#paint1_linear_148_178)"/>
<path d="M33.017 25.8331C32.8072 25.1318 32.3309 24.55 31.6984 24.2228L29.9248 23.3001C29.5408 23.1007 29.385 22.6153 29.5768 22.216C29.7083 21.9423 29.9772 21.7692 30.2715 21.769H30.5372C30.9661 21.77 31.3134 22.1312 31.3144 22.5771V22.7153H33.1344V22.5771C33.1302 21.4013 32.3938 20.3639 31.3144 20.0135V18.9299H29.4944V20.0135C28.1295 20.455 27.3672 21.9634 27.7917 23.3828C28.0015 24.0842 28.4779 24.6659 29.1103 24.9931L30.8839 25.9158C31.268 26.1153 31.4237 26.6006 31.2319 27C31.1004 27.2737 30.8315 27.4468 30.5372 27.447H30.2715C29.8427 27.4459 29.4954 27.0848 29.4944 26.6388V26.5007H27.6743V26.6388C27.6785 27.8147 28.415 28.8521 29.4944 29.2025V30.286H31.3144V29.2025C32.6793 28.761 33.4415 27.2525 33.017 25.8331Z" fill="url(#paint2_linear_148_178)"/>
<path d="M30.4043 15.1445C25.3807 15.1502 21.3098 19.3838 21.3042 24.6079C21.3042 29.8345 25.3784 34.0714 30.4043 34.0714C35.4302 34.0714 39.5044 29.8345 39.5044 24.6079C39.5044 19.3815 35.4302 15.1445 30.4043 15.1445ZM30.4043 32.1787C26.3836 32.1787 23.1242 28.7891 23.1242 24.6079C23.1242 20.4268 26.3836 17.0372 30.4043 17.0372C34.4231 17.0419 37.6798 20.4287 37.6844 24.6079C37.6844 28.7892 34.4249 32.1787 30.4043 32.1787Z" fill="url(#paint3_linear_148_178)"/>
<path d="M35.8644 23.6616H34.0444V25.5542H35.8644V23.6616Z" fill="url(#paint4_linear_148_178)"/>
<path d="M26.7643 23.6616H24.9443V25.5542H26.7643V23.6616Z" fill="url(#paint5_linear_148_178)"/>
<defs>
<linearGradient id="paint0_linear_148_178" x1="26.7763" y1="0" x2="26.7763" y2="53" gradientUnits="userSpaceOnUse">
<stop stop-color="#175EC7"/>
<stop offset="1" stop-color="#0BC4FF"/>
</linearGradient>
<linearGradient id="paint1_linear_148_178" x1="8.56412" y1="44.4811" x2="8.56412" y2="46.3738" gradientUnits="userSpaceOnUse">
<stop stop-color="#175EC7"/>
<stop offset="1" stop-color="#0BC4FF"/>
</linearGradient>
<linearGradient id="paint2_linear_148_178" x1="30.4044" y1="18.9299" x2="30.4044" y2="30.286" gradientUnits="userSpaceOnUse">
<stop stop-color="#175EC7"/>
<stop offset="1" stop-color="#0BC4FF"/>
</linearGradient>
<linearGradient id="paint3_linear_148_178" x1="30.4043" y1="15.1445" x2="30.4043" y2="34.0714" gradientUnits="userSpaceOnUse">
<stop stop-color="#175EC7"/>
<stop offset="1" stop-color="#0BC4FF"/>
</linearGradient>
<linearGradient id="paint4_linear_148_178" x1="34.9544" y1="23.6616" x2="34.9544" y2="25.5542" gradientUnits="userSpaceOnUse">
<stop stop-color="#175EC7"/>
<stop offset="1" stop-color="#0BC4FF"/>
</linearGradient>
<linearGradient id="paint5_linear_148_178" x1="25.8543" y1="23.6616" x2="25.8543" y2="25.5542" gradientUnits="userSpaceOnUse">
<stop stop-color="#175EC7"/>
<stop offset="1" stop-color="#0BC4FF"/>
</linearGradient>
</defs>
</svg>
