<svg width="44" height="53" viewBox="0 0 44 53" fill="none" xmlns="http://www.w3.org/2000/svg">
<path d="M5.97406 44.1667H4.2074V45.9334H5.97406V44.1667Z" fill="url(#paint0_linear_148_194)"/>
<path d="M7.74079 25.6166H5.97412V27.3833H7.74079V25.6166Z" fill="url(#paint1_linear_148_194)"/>
<path d="M16.574 3.53333H14.8074V5.29999H16.574V3.53333Z" fill="url(#paint2_linear_148_194)"/>
<path d="M20.1075 3.53333H18.3408V5.29999H20.1075V3.53333Z" fill="url(#paint3_linear_148_194)"/>
<path d="M43.0741 30.5033V26.5C43.0741 24.7925 41.6899 23.4083 39.9824 23.4083C39.4093 23.4104 38.8484 23.5733 38.3633 23.8783C37.6686 22.3419 35.8601 21.6597 34.3239 22.3543C34.2959 22.3669 34.2682 22.3799 34.2407 22.3934V4.41667C34.2379 1.97867 32.2621 0.00287083 29.8241 0H5.09074C2.65274 0.00287083 0.676943 1.97867 0.674072 4.41667V48.5833C0.676943 51.0213 2.65274 52.9971 5.09074 53H27.1741V49.4667H39.5407V53H41.3074V49.4667H42.1907C42.6786 49.4667 43.0741 49.0712 43.0741 48.5833V41.5167C43.0741 41.0288 42.6786 40.6333 42.1907 40.6333H41.3074V38.1883C42.4665 35.792 43.0703 33.1652 43.0741 30.5033ZM2.44074 4.41667C2.44074 2.95309 3.62717 1.76667 5.09074 1.76667H29.8241C31.2876 1.76667 32.4741 2.95309 32.4741 4.41667V7.06667H2.44074V4.41667ZM25.4074 51.2333H5.09074C3.62717 51.2333 2.44074 50.0469 2.44074 48.5833V8.83333H32.4741V21.0684C31.6391 20.655 30.659 20.655 29.8241 21.0684V16.3417C29.8241 14.6342 28.4399 13.25 26.7324 13.25C25.0249 13.25 23.6407 14.6342 23.6407 16.3417V26.5795C20.7278 27.0989 18.7876 29.8813 19.3069 32.7942C19.5837 34.3464 20.5302 35.698 21.8944 36.4887L24.4561 37.9506C25.0446 38.2892 25.4074 38.9165 25.4074 39.5954V40.6333H24.5241C24.0363 40.6333 23.6407 41.0288 23.6407 41.5167V44.1667H7.74074V45.9333H23.6407V48.5833C23.6407 49.0712 24.0363 49.4667 24.5241 49.4667H25.4074V51.2333ZM41.3074 47.7H25.4074V42.4H41.3074V47.7ZM39.6291 37.5885C39.5694 37.7115 39.5392 37.8466 39.5407 37.9833V40.6333H27.1741V39.5954C27.1731 38.2813 26.4692 37.0683 25.3288 36.4154L22.7671 34.9526C21.6478 34.3009 20.9683 33.095 20.9907 31.8C20.9968 30.1938 22.0855 28.7937 23.6407 28.3921V31.8H25.4074V16.3417C25.4074 15.6099 26.0007 15.0167 26.7324 15.0167C27.4641 15.0167 28.0574 15.6099 28.0574 16.3417V28.2667H29.8241V23.85C29.8241 23.1183 30.4173 22.525 31.1491 22.525C31.8808 22.525 32.4741 23.1183 32.4741 23.85V28.2667H34.2407V25.175C34.2407 24.4433 34.834 23.85 35.5657 23.85C36.2975 23.85 36.8907 24.4433 36.8907 25.175V28.2667H38.6574V26.5C38.6574 25.7683 39.2507 25.175 39.9824 25.175C40.7141 25.175 41.3074 25.7683 41.3074 26.5V30.4997C41.3031 32.9606 40.7286 35.387 39.6291 37.5885Z" fill="url(#paint4_linear_148_194)"/>
<path d="M14.6935 17.9269C14.4898 17.2723 14.0274 16.7292 13.4135 16.4238L11.6919 15.5626C11.3191 15.3764 11.168 14.9234 11.3541 14.5506C11.4818 14.2951 11.7428 14.1336 12.0284 14.1333H12.2864C12.7026 14.1343 13.0397 14.4714 13.0407 14.8877V15.0167H14.8074V14.8877C14.8033 13.7902 14.0885 12.8218 13.0407 12.4948V11.4833H11.2741V12.4948C9.94918 12.9068 9.20928 14.3149 9.62136 15.6398C9.82496 16.2944 10.2874 16.8374 10.9013 17.1429L12.6229 18.0041C12.9957 18.1903 13.1468 18.6433 12.9607 19.0161C12.833 19.2716 12.572 19.4331 12.2864 19.4333H12.0284C11.6122 19.4323 11.2751 19.0952 11.2741 18.679V18.55H9.50741V18.679C9.51149 19.7765 10.2263 20.7449 11.2741 21.0719V22.0833H13.0407V21.0719C14.3656 20.6598 15.1055 19.2518 14.6935 17.9269Z" fill="url(#paint5_linear_148_194)"/>
<path d="M16.5742 29.15H5.09082V30.9167H16.5742V29.15Z" fill="url(#paint6_linear_148_194)"/>
<path d="M16.5742 32.6833H5.09082V34.45H16.5742V32.6833Z" fill="url(#paint7_linear_148_194)"/>
<path d="M16.5742 36.2167H5.09082V37.9833H16.5742V36.2167Z" fill="url(#paint8_linear_148_194)"/>
<path d="M16.574 25.6166H9.50732V27.3833H16.574V25.6166Z" fill="url(#paint9_linear_148_194)"/>
<path d="M18.3406 47.7H16.574V49.4667H18.3406V47.7Z" fill="url(#paint10_linear_148_194)"/>
<path d="M39.5408 44.1667H37.7742V45.9334H39.5408V44.1667Z" fill="url(#paint11_linear_148_194)"/>
<defs>
<linearGradient id="paint0_linear_148_194" x1="5.09073" y1="44.1667" x2="5.09073" y2="45.9334" gradientUnits="userSpaceOnUse">
<stop stop-color="#175EC7"/>
<stop offset="1" stop-color="#0BC4FF"/>
</linearGradient>
<linearGradient id="paint1_linear_148_194" x1="6.85745" y1="25.6166" x2="6.85745" y2="27.3833" gradientUnits="userSpaceOnUse">
<stop stop-color="#175EC7"/>
<stop offset="1" stop-color="#0BC4FF"/>
</linearGradient>
<linearGradient id="paint2_linear_148_194" x1="15.6907" y1="3.53333" x2="15.6907" y2="5.29999" gradientUnits="userSpaceOnUse">
<stop stop-color="#175EC7"/>
<stop offset="1" stop-color="#0BC4FF"/>
</linearGradient>
<linearGradient id="paint3_linear_148_194" x1="19.2242" y1="3.53333" x2="19.2242" y2="5.29999" gradientUnits="userSpaceOnUse">
<stop stop-color="#175EC7"/>
<stop offset="1" stop-color="#0BC4FF"/>
</linearGradient>
<linearGradient id="paint4_linear_148_194" x1="21.8741" y1="0" x2="21.8741" y2="53" gradientUnits="userSpaceOnUse">
<stop stop-color="#175EC7"/>
<stop offset="1" stop-color="#0BC4FF"/>
</linearGradient>
<linearGradient id="paint5_linear_148_194" x1="12.1574" y1="11.4833" x2="12.1574" y2="22.0833" gradientUnits="userSpaceOnUse">
<stop stop-color="#175EC7"/>
<stop offset="1" stop-color="#0BC4FF"/>
</linearGradient>
<linearGradient id="paint6_linear_148_194" x1="10.8325" y1="29.15" x2="10.8325" y2="30.9167" gradientUnits="userSpaceOnUse">
<stop stop-color="#175EC7"/>
<stop offset="1" stop-color="#0BC4FF"/>
</linearGradient>
<linearGradient id="paint7_linear_148_194" x1="10.8325" y1="32.6833" x2="10.8325" y2="34.45" gradientUnits="userSpaceOnUse">
<stop stop-color="#175EC7"/>
<stop offset="1" stop-color="#0BC4FF"/>
</linearGradient>
<linearGradient id="paint8_linear_148_194" x1="10.8325" y1="36.2167" x2="10.8325" y2="37.9833" gradientUnits="userSpaceOnUse">
<stop stop-color="#175EC7"/>
<stop offset="1" stop-color="#0BC4FF"/>
</linearGradient>
<linearGradient id="paint9_linear_148_194" x1="13.0407" y1="25.6166" x2="13.0407" y2="27.3833" gradientUnits="userSpaceOnUse">
<stop stop-color="#175EC7"/>
<stop offset="1" stop-color="#0BC4FF"/>
</linearGradient>
<linearGradient id="paint10_linear_148_194" x1="17.4573" y1="47.7" x2="17.4573" y2="49.4667" gradientUnits="userSpaceOnUse">
<stop stop-color="#175EC7"/>
<stop offset="1" stop-color="#0BC4FF"/>
</linearGradient>
<linearGradient id="paint11_linear_148_194" x1="38.6575" y1="44.1667" x2="38.6575" y2="45.9334" gradientUnits="userSpaceOnUse">
<stop stop-color="#175EC7"/>
<stop offset="1" stop-color="#0BC4FF"/>
</linearGradient>
</defs>
</svg>
