<svg width="23" height="22" viewBox="0 0 23 22" fill="none" xmlns="http://www.w3.org/2000/svg">
<path d="M6.83499 0.450012C5.54277 0.450012 4.44439 1.39817 4.08903 2.69749H1.14923C0.696956 2.69749 0.373901 3.08377 0.373901 3.57541C0.373901 4.06704 0.729261 4.45333 1.18154 4.45333H4.12133C4.44439 5.75265 5.57508 6.70081 6.86729 6.70081C8.19182 6.70081 9.2902 5.75265 9.64556 4.45333H21.5663C22.0185 4.45333 22.3739 4.06704 22.3739 3.57541C22.3739 3.08377 22.0185 2.69749 21.5663 2.69749H9.64556C9.2579 1.39817 8.15951 0.450012 6.83499 0.450012ZM6.86729 2.20585C7.54571 2.20585 8.12721 2.80284 8.12721 3.57541C8.12721 4.34798 7.54571 4.94496 6.86729 4.94496C6.18888 4.94496 5.60738 4.34798 5.60738 3.57541C5.60738 2.80284 6.18888 2.20585 6.86729 2.20585Z" fill="white"/>
<path d="M16.5589 7.47339C15.2667 7.47339 14.1683 8.42155 13.813 9.72089H1.18154C0.696956 9.72089 0.373901 10.1072 0.373901 10.5988C0.373901 11.0905 0.729261 11.4767 1.18154 11.4767H13.813C14.136 12.7761 15.2667 13.7242 16.5589 13.7242C17.8834 13.7242 18.9818 12.7761 19.3372 11.4767H21.5663C22.0185 11.4767 22.3739 11.0905 22.3739 10.5988C22.3739 10.1072 22.0185 9.72089 21.5663 9.72089H19.3372C18.9818 8.42155 17.8834 7.47339 16.5589 7.47339ZM16.5912 9.22925C17.2696 9.22925 17.8511 9.82624 17.8511 10.5988C17.8511 11.3714 17.2696 11.9684 16.5912 11.9684C15.9128 11.9684 15.3313 11.3714 15.3313 10.5988C15.3313 9.82624 15.8805 9.22925 16.5912 9.22925Z" fill="white"/>
<path d="M10.7116 15.1991C9.41942 15.1991 8.32104 16.1473 7.96568 17.4466H1.18154C0.696956 17.4466 0.373901 17.8329 0.373901 18.3245C0.373901 18.8162 0.729261 19.2025 1.18154 19.2025H7.99798C8.32104 20.5018 9.45173 21.45 10.7439 21.45C12.0685 21.45 13.1669 20.5018 13.5222 19.2025H21.5663C22.0185 19.2025 22.3739 18.8162 22.3739 18.3245C22.3739 17.8329 22.0185 17.4466 21.5663 17.4466H13.4899C13.1345 16.1473 12.0362 15.1991 10.7116 15.1991ZM10.7439 16.955C11.4224 16.955 12.0039 17.5519 12.0039 18.3245C12.0039 19.0971 11.4224 19.6941 10.7439 19.6941C10.0655 19.6941 9.48403 19.0971 9.48403 18.3245C9.51634 17.5519 10.0655 16.955 10.7439 16.955Z" fill="white"/>
</svg>
