<svg width="21" height="21" viewBox="0 0 21 21" fill="none" xmlns="http://www.w3.org/2000/svg">
<path d="M3.41175 3.30326C5.27058 1.266 7.84251 0.116271 10.5295 0.121462C15.9596 0.114281 20.3672 4.73054 20.374 10.4322C20.3774 13.2515 19.2825 15.9495 17.3437 17.8999C17.3381 17.9058 17.336 17.9147 17.3304 17.9199C17.2734 17.9774 17.2116 18.0262 17.1539 18.0816C16.9957 18.2292 16.8375 18.3821 16.6708 18.5246C16.5815 18.5984 16.4887 18.6722 16.3973 18.7401C16.2398 18.8634 16.0823 18.9867 15.9178 19.1004C15.8059 19.1743 15.6906 19.2481 15.576 19.3219C15.4242 19.4179 15.273 19.5146 15.1162 19.6025C14.9833 19.6763 14.8476 19.7398 14.7126 19.807C14.5649 19.8808 14.4193 19.9546 14.2682 20.0211C14.117 20.0875 13.9651 20.1392 13.8118 20.1968C13.6586 20.2544 13.5264 20.3075 13.3794 20.3548C13.2135 20.4072 13.0433 20.4478 12.8745 20.4913C12.7339 20.5275 12.5975 20.5689 12.4526 20.5984C12.2586 20.639 12.0617 20.6649 11.8648 20.6929C11.7431 20.7107 11.6243 20.7358 11.5013 20.7483C11.1792 20.7815 10.8544 20.8 10.5267 20.8C10.1991 20.8 9.87421 20.7815 9.55219 20.7483C9.42913 20.7358 9.31031 20.7107 9.18868 20.6929C8.99179 20.6649 8.79493 20.639 8.60084 20.5984C8.46022 20.5689 8.31956 20.5246 8.17895 20.4913C8.01019 20.4478 7.84003 20.4072 7.67408 20.3548C7.52712 20.3075 7.3851 20.25 7.24164 20.1968C7.09818 20.1436 6.93507 20.086 6.78531 20.0211C6.63554 19.9561 6.48858 19.88 6.34092 19.807C6.20591 19.7398 6.0702 19.6763 5.93732 19.6025C5.78052 19.5146 5.62935 19.4179 5.47745 19.3219C5.36283 19.2481 5.24751 19.1809 5.13573 19.1004C4.97118 18.9868 4.81367 18.8635 4.6562 18.7401C4.56478 18.6663 4.472 18.5998 4.38267 18.5246C4.21602 18.3843 4.05781 18.2351 3.8996 18.0816C3.84196 18.0262 3.78008 17.9775 3.7231 17.9199C3.7175 17.9147 3.71535 17.9059 3.70975 17.8999C-0.211443 13.9555 -0.344807 7.42038 3.41175 3.30326ZM4.99215 17.1269C5.12012 17.245 5.25233 17.3573 5.3859 17.4658C5.46463 17.5293 5.54341 17.592 5.62428 17.6526C5.75155 17.7493 5.88092 17.8409 6.01243 17.9287C6.10806 17.993 6.20578 18.055 6.30425 18.1155C6.42802 18.1894 6.55389 18.2632 6.68115 18.337C6.79367 18.3975 6.90829 18.4544 7.02357 18.5105C7.13885 18.5667 7.26616 18.6264 7.39062 18.6789C7.51509 18.7313 7.64726 18.7807 7.77737 18.8265C7.89619 18.8693 8.01501 18.9136 8.13528 18.9513C8.27589 18.9956 8.42285 19.0317 8.56841 19.0687C8.68233 19.0967 8.79481 19.1285 8.91013 19.1521C9.07678 19.1861 9.24694 19.2097 9.4178 19.2341C9.51482 19.2474 9.61115 19.2658 9.70892 19.2762C9.97895 19.3035 10.2525 19.3197 10.5288 19.3197C10.8051 19.3197 11.0787 19.3035 11.3487 19.2762C11.4464 19.2658 11.5427 19.2474 11.6398 19.2341C11.8107 19.2097 11.9808 19.1861 12.1475 19.1521C12.2628 19.1285 12.3753 19.0968 12.4892 19.0687C12.6348 19.0318 12.7796 18.9948 12.9223 18.9513C13.0426 18.9136 13.1614 18.8693 13.2802 18.8265C13.4103 18.7793 13.5404 18.7313 13.667 18.6789C13.7936 18.6264 13.9131 18.5689 14.034 18.5105C14.155 18.4522 14.264 18.3976 14.3765 18.337C14.5037 18.2676 14.6296 18.1945 14.7534 18.1155C14.8518 18.055 14.9495 17.993 15.0452 17.9287C15.1766 17.8409 15.3061 17.7493 15.4333 17.6526C15.5142 17.5921 15.5929 17.5293 15.6717 17.4658C15.8053 17.3573 15.9375 17.2443 16.0655 17.1269C16.0964 17.1026 16.1245 17.0715 16.1547 17.0435C16.1233 14.5319 14.5867 12.3142 12.3204 11.5098C11.1873 12.0758 9.8717 12.0758 8.73857 11.5098C6.47239 12.3142 4.93575 14.5319 4.90427 17.0435C4.93381 17.0715 4.96195 17.0996 4.99215 17.1269ZM12.9815 6.04111C12.2201 4.61941 10.5053 4.11495 9.15131 4.91436C7.79731 5.71376 7.31687 7.5143 8.07821 8.936C8.33081 9.40771 8.70203 9.79749 9.15131 10.0628C9.15482 10.0628 9.15906 10.0628 9.16326 10.0672C9.34974 10.1761 9.5468 10.2638 9.75111 10.3286C9.78765 10.3396 9.82144 10.3544 9.86008 10.364C9.93041 10.3832 10.0042 10.3965 10.0767 10.4098C10.213 10.4348 10.351 10.4493 10.4894 10.4533H10.5696C10.708 10.4493 10.846 10.4348 10.9823 10.4098C11.0527 10.3965 11.1272 10.3832 11.1989 10.364C11.2362 10.3544 11.2692 10.3396 11.3079 10.3286C11.5122 10.2638 11.7092 10.1762 11.8957 10.0672L11.9084 10.0628C13.2624 9.26335 13.7428 7.46282 12.9815 6.04111ZM3.65689 15.5794C4.10812 13.3696 5.49401 11.4961 7.42156 10.4903C5.84586 8.68804 5.95999 5.88576 7.67643 4.23128C9.39287 2.57679 12.0617 2.69662 13.6374 4.49888C15.1187 6.19322 15.1187 8.79601 13.6374 10.4903C15.565 11.4961 16.9509 13.3696 17.4021 15.5794C20.0984 11.5916 19.2053 6.06369 15.4074 3.23257C11.6094 0.401443 6.34475 1.33915 3.64845 5.32701C2.63488 6.82611 2.09079 8.6193 2.09165 10.4578C2.09165 12.2946 2.63896 14.0855 3.65689 15.5794Z" fill="white"/>
</svg>
