<svg width="20" height="21" viewBox="0 0 20 21" fill="none" xmlns="http://www.w3.org/2000/svg">
<path d="M19.5941 19.4895L14.7725 14.4268C15.971 12.9135 16.693 10.9703 16.693 8.85293C16.693 4.03837 12.9627 0.121445 8.37763 0.121445C3.79244 0.121445 0.0621338 4.03837 0.0621338 8.85293C0.0621338 13.6672 3.79244 17.5838 8.37763 17.5838C10.3941 17.5838 12.2449 16.8257 13.6861 15.5673L18.5079 20.63C18.6578 20.7876 18.8545 20.8663 19.051 20.8663C19.2476 20.8663 19.4442 20.7876 19.5942 20.63C19.8942 20.3151 19.8942 19.8045 19.5941 19.4895ZM1.59842 8.85293C1.59842 4.92783 4.63954 1.73454 8.37763 1.73454C12.1156 1.73454 15.1566 4.92783 15.1566 8.85293C15.1566 12.7777 12.1156 15.9707 8.37763 15.9707C4.63954 15.9707 1.59842 12.7777 1.59842 8.85293Z" fill="white"/>
</svg>
