<svg width="25" height="21" viewBox="0 0 25 21" fill="none" xmlns="http://www.w3.org/2000/svg">
<path d="M21.344 0.121445H3.05209C1.47387 0.12212 0.194684 1.73338 0.19397 3.72102V17.1616C0.194684 19.1493 1.47387 20.7607 3.05209 20.7612H21.344C22.9222 20.7607 24.2014 19.1493 24.2021 17.1616V3.72102C24.2014 1.73338 22.9222 0.12212 21.344 0.121445ZM3.05209 1.56128H21.344C22.1673 1.56397 22.8738 2.29986 23.0303 3.31764L12.1981 10.9202L1.3658 3.31764C1.52228 2.29986 2.22877 1.56397 3.05209 1.56128ZM21.344 19.3144H3.05209C2.10623 19.3108 1.3399 18.3459 1.33722 17.1546V4.94488L11.918 12.3742C12.0037 12.4336 12.1 12.466 12.1981 12.468C12.2965 12.4693 12.3931 12.4369 12.4782 12.3742L23.0589 4.94488V17.1546C23.0582 18.347 22.2908 19.3133 21.344 19.3144Z" fill="white"/>
</svg>
